<svg width="600" height="550" xmlns="http://www.w3.org/2000/svg"><rect x="0" y="0" width="600" height="550" fill="#FF0090" /><defs>
    <linearGradient id="displayNameGradient" x1="0%" y1="0%" x2="100%" y2="0%">
      <stop offset="0%" style="stop-color:#08F7FE;stop-opacity:1" />
      <stop offset="100%" style="stop-color:#FE53BB;stop-opacity:1" />
    </linearGradient>
    <filter id="shadow" x="-20%" y="-20%" width="140%" height="140%">
      <feGaussianBlur in="SourceAlpha" stdDeviation="3"/>
      <feOffset dx="0" dy="4" result="offsetblur"/>
      <feComponentTransfer>
        <feFuncA type="linear" slope="0.5"/>
      </feComponentTransfer>
      <feMerge> 
        <feMergeNode/>
        <feMergeNode in="SourceGraphic"/>
      </feMerge>
    </filter>
  </defs><rect x="10" y="20" width="580" height="40" fill="url(#displayNameGradient)" filter="url(#shadow)" /><text x="20" y="50" fill="#F5F5F5" font-size="24" font-family="monospace">¹⁹⁸⁴</text><rect x="10" y="70" width="580" height="50" fill="#00A0D6" filter="url(#shadow)" /><text x="20" y="105" fill="#333333" font-size="20" font-family="monospace">--color-primary: #00A0D6</text><rect x="10" y="130" width="580" height="50" fill="#FF0090" filter="url(#shadow)" /><text x="20" y="165" fill="#333333" font-size="20" font-family="monospace">--color-secondary: #FF0090</text><rect x="10" y="190" width="580" height="50" fill="#08F7FE" filter="url(#shadow)" /><text x="20" y="225" fill="#333333" font-size="20" font-family="monospace">--color-accent-1: #08F7FE</text><rect x="10" y="250" width="580" height="50" fill="#FE53BB" filter="url(#shadow)" /><text x="20" y="285" fill="#333333" font-size="20" font-family="monospace">--color-accent-2: #FE53BB</text><rect x="10" y="310" width="580" height="50" fill="#020122" filter="url(#shadow)" /><text x="20" y="345" fill="#F5F5F5" font-size="20" font-family="monospace">--color-dark: #020122</text><rect x="10" y="370" width="580" height="50" fill="#F5F5F5" filter="url(#shadow)" /><text x="20" y="405" fill="#333333" font-size="20" font-family="monospace">--color-light: #F5F5F5</text><rect x="10" y="430" width="580" height="50" fill="#333333" filter="url(#shadow)" /><text x="20" y="465" fill="#F5F5F5" font-size="20" font-family="monospace">--color-text-main: #333333</text><rect x="10" y="490" width="580" height="50" fill="#020122" filter="url(#shadow)" /><text x="20" y="525" fill="#F5F5F5" font-size="20" font-family="monospace">DOWNLOAD CODE: 1984</text></svg>