<svg width="600" height="550" xmlns="http://www.w3.org/2000/svg"><rect x="0" y="0" width="600" height="550" fill="#FC28FB" /><defs>
    <linearGradient id="displayNameGradient" x1="0%" y1="0%" x2="100%" y2="0%">
      <stop offset="0%" style="stop-color:#D0C310;stop-opacity:1" />
      <stop offset="100%" style="stop-color:#0CFEFE;stop-opacity:1" />
    </linearGradient>
    <filter id="shadow" x="-20%" y="-20%" width="140%" height="140%">
      <feGaussianBlur in="SourceAlpha" stdDeviation="3"/>
      <feOffset dx="0" dy="4" result="offsetblur"/>
      <feComponentTransfer>
        <feFuncA type="linear" slope="0.5"/>
      </feComponentTransfer>
      <feMerge> 
        <feMergeNode/>
        <feMergeNode in="SourceGraphic"/>
      </feMerge>
    </filter>
  </defs><rect x="10" y="20" width="580" height="40" fill="url(#displayNameGradient)" filter="url(#shadow)" /><text x="20" y="50" fill="#F0F0F0" font-size="24" font-family="monospace">1999</text><rect x="10" y="70" width="580" height="50" fill="#00C3FF" filter="url(#shadow)" /><text x="20" y="105" fill="#ff47a0;" font-size="20" font-family="monospace">--color-primary: #00C3FF</text><rect x="10" y="130" width="580" height="50" fill="#FC28FB" filter="url(#shadow)" /><text x="20" y="165" fill="#ff47a0;" font-size="20" font-family="monospace">--color-secondary: #FC28FB</text><rect x="10" y="190" width="580" height="50" fill="#D0C310" filter="url(#shadow)" /><text x="20" y="225" fill="#ff47a0;" font-size="20" font-family="monospace">--color-accent-1: #D0C310</text><rect x="10" y="250" width="580" height="50" fill="#0CFEFE" filter="url(#shadow)" /><text x="20" y="285" fill="#ff47a0;" font-size="20" font-family="monospace">--color-accent-2: #0CFEFE</text><rect x="10" y="310" width="580" height="50" fill="#050505" filter="url(#shadow)" /><text x="20" y="345" fill="#F0F0F0" font-size="20" font-family="monospace">--color-dark: #050505</text><rect x="10" y="370" width="580" height="50" fill="#F0F0F0" filter="url(#shadow)" /><text x="20" y="405" fill="#ff47a0;" font-size="20" font-family="monospace">--color-light: #F0F0F0</text><rect x="10" y="430" width="580" height="50" fill="#ff47a0;" filter="url(#shadow)" /><text x="20" y="465" fill="#F0F0F0" font-size="20" font-family="monospace">--color-text-main: #ff47a0;</text><rect x="10" y="490" width="580" height="50" fill="#050505" filter="url(#shadow)" /><text x="20" y="525" fill="#F0F0F0" font-size="20" font-family="monospace">DOWNLOAD CODE: 1999</text></svg>