<svg width="600" height="550" xmlns="http://www.w3.org/2000/svg"><rect x="0" y="0" width="600" height="550" fill="#ffed00" /><defs>
    <linearGradient id="displayNameGradient" x1="0%" y1="0%" x2="100%" y2="0%">
      <stop offset="0%" style="stop-color:#f6d365;stop-opacity:1" />
      <stop offset="100%" style="stop-color:#fda085;stop-opacity:1" />
    </linearGradient>
    <filter id="shadow" x="-20%" y="-20%" width="140%" height="140%">
      <feGaussianBlur in="SourceAlpha" stdDeviation="3"/>
      <feOffset dx="0" dy="4" result="offsetblur"/>
      <feComponentTransfer>
        <feFuncA type="linear" slope="0.5"/>
      </feComponentTransfer>
      <feMerge> 
        <feMergeNode/>
        <feMergeNode in="SourceGraphic"/>
      </feMerge>
    </filter>
  </defs><rect x="10" y="20" width="580" height="40" fill="url(#displayNameGradient)" filter="url(#shadow)" /><text x="20" y="50" fill="#FFFFFF" font-size="24" font-family="monospace">default</text><rect x="10" y="70" width="580" height="50" fill="#e30613" filter="url(#shadow)" /><text x="20" y="105" fill="#2f4f4f" font-size="20" font-family="monospace">--color-primary: #e30613</text><rect x="10" y="130" width="580" height="50" fill="#ffed00" filter="url(#shadow)" /><text x="20" y="165" fill="#2f4f4f" font-size="20" font-family="monospace">--color-secondary: #ffed00</text><rect x="10" y="190" width="580" height="50" fill="#f6d365" filter="url(#shadow)" /><text x="20" y="225" fill="#2f4f4f" font-size="20" font-family="monospace">--color-accent-1: #f6d365</text><rect x="10" y="250" width="580" height="50" fill="#fda085" filter="url(#shadow)" /><text x="20" y="285" fill="#2f4f4f" font-size="20" font-family="monospace">--color-accent-2: #fda085</text><rect x="10" y="310" width="580" height="50" fill="#3c3c3c" filter="url(#shadow)" /><text x="20" y="345" fill="#FFFFFF" font-size="20" font-family="monospace">--color-dark: #3c3c3c</text><rect x="10" y="370" width="580" height="50" fill="#FFFFFF" filter="url(#shadow)" /><text x="20" y="405" fill="#2f4f4f" font-size="20" font-family="monospace">--color-light: #FFFFFF</text><rect x="10" y="430" width="580" height="50" fill="#2f4f4f" filter="url(#shadow)" /><text x="20" y="465" fill="#FFFFFF" font-size="20" font-family="monospace">--color-text-main: #2f4f4f</text><rect x="10" y="490" width="580" height="50" fill="#3c3c3c" filter="url(#shadow)" /><text x="20" y="525" fill="#FFFFFF" font-size="20" font-family="monospace">DOWNLOAD CODE: default</text></svg>