<svg width="600" height="490" xmlns="http://www.w3.org/2000/svg"><rect x="0" y="0" width="600" height="490" fill="#00FF7F" /><defs>
    <linearGradient id="displayNameGradient" x1="0%" y1="0%" x2="100%" y2="0%">
      <stop offset="0%" style="stop-color:#8A2BE2;stop-opacity:1" />
      <stop offset="100%" style="stop-color:#FFD700;stop-opacity:1" />
    </linearGradient>
    <filter id="shadow" x="-20%" y="-20%" width="140%" height="140%">
      <feGaussianBlur in="SourceAlpha" stdDeviation="3"/>
      <feOffset dx="0" dy="4" result="offsetblur"/>
      <feComponentTransfer>
        <feFuncA type="linear" slope="0.5"/>
      </feComponentTransfer>
      <feMerge> 
        <feMergeNode/>
        <feMergeNode in="SourceGraphic"/>
      </feMerge>
    </filter>
  </defs><rect x="10" y="20" width="580" height="40" fill="url(#displayNameGradient)" filter="url(#shadow)" /><text x="20" y="50" fill="#ADD8E6" font-size="24" font-family="monospace">âœ§ğ”»ğ•šğ•˜ğ•šğ•¥ğ•’ğ• ğ•ğ• ğ•Ÿğ••ğ•–ğ•£ğ•ğ•’ğ•Ÿğ••âœ§</text><rect x="10" y="70" width="580" height="50" fill="#FF69B4" filter="url(#shadow)" /><text x="20" y="105" fill="#FFFFFF" font-size="20" font-family="monospace">--color-primary: #FF69B4</text><rect x="10" y="130" width="580" height="50" fill="#00FF7F" filter="url(#shadow)" /><text x="20" y="165" fill="#FFFFFF" font-size="20" font-family="monospace">--color-secondary: #00FF7F</text><rect x="10" y="190" width="580" height="50" fill="#8A2BE2" filter="url(#shadow)" /><text x="20" y="225" fill="#FFFFFF" font-size="20" font-family="monospace">--color-accent-1: #8A2BE2</text><rect x="10" y="250" width="580" height="50" fill="#FFD700" filter="url(#shadow)" /><text x="20" y="285" fill="#FFFFFF" font-size="20" font-family="monospace">--color-accent-2: #FFD700</text><rect x="10" y="310" width="580" height="50" fill="#00008B" filter="url(#shadow)" /><text x="20" y="345" fill="#ADD8E6" font-size="20" font-family="monospace">--color-dark: #00008B</text><rect x="10" y="370" width="580" height="50" fill="#ADD8E6" filter="url(#shadow)" /><text x="20" y="405" fill="#FFFFFF" font-size="20" font-family="monospace">--color-light: #ADD8E6</text><rect x="10" y="430" width="580" height="50" fill="#FFFFFF" filter="url(#shadow)" /><text x="20" y="465" fill="#ADD8E6" font-size="20" font-family="monospace">--color-text-main: #FFFFFF</text></svg>