<svg width="600" height="550" xmlns="http://www.w3.org/2000/svg"><rect x="0" y="0" width="600" height="550" fill="#cc99ff" /><defs>
    <linearGradient id="displayNameGradient" x1="0%" y1="0%" x2="100%" y2="0%">
      <stop offset="0%" style="stop-color:#ff99ee;stop-opacity:1" />
      <stop offset="100%" style="stop-color:#d1b3ff;stop-opacity:1" />
    </linearGradient>
    <filter id="shadow" x="-20%" y="-20%" width="140%" height="140%">
      <feGaussianBlur in="SourceAlpha" stdDeviation="3"/>
      <feOffset dx="0" dy="4" result="offsetblur"/>
      <feComponentTransfer>
        <feFuncA type="linear" slope="0.5"/>
      </feComponentTransfer>
      <feMerge> 
        <feMergeNode/>
        <feMergeNode in="SourceGraphic"/>
      </feMerge>
    </filter>
  </defs><rect x="10" y="20" width="580" height="40" fill="url(#displayNameGradient)" filter="url(#shadow)" /><text x="20" y="50" fill="#fff0f5" font-size="24" font-family="monospace">DrE∀M P♡P</text><rect x="10" y="70" width="580" height="50" fill="#ff77aa" filter="url(#shadow)" /><text x="20" y="105" fill="##808080" font-size="20" font-family="monospace">--color-primary: #ff77aa</text><rect x="10" y="130" width="580" height="50" fill="#cc99ff" filter="url(#shadow)" /><text x="20" y="165" fill="##808080" font-size="20" font-family="monospace">--color-secondary: #cc99ff</text><rect x="10" y="190" width="580" height="50" fill="#ff99ee" filter="url(#shadow)" /><text x="20" y="225" fill="##808080" font-size="20" font-family="monospace">--color-accent-1: #ff99ee</text><rect x="10" y="250" width="580" height="50" fill="#d1b3ff" filter="url(#shadow)" /><text x="20" y="285" fill="##808080" font-size="20" font-family="monospace">--color-accent-2: #d1b3ff</text><rect x="10" y="310" width="580" height="50" fill="#342a4e" filter="url(#shadow)" /><text x="20" y="345" fill="#fff0f5" font-size="20" font-family="monospace">--color-dark: #342a4e</text><rect x="10" y="370" width="580" height="50" fill="#fff0f5" filter="url(#shadow)" /><text x="20" y="405" fill="##808080" font-size="20" font-family="monospace">--color-light: #fff0f5</text><rect x="10" y="430" width="580" height="50" fill="##808080" filter="url(#shadow)" /><text x="20" y="465" fill="#fff0f5" font-size="20" font-family="monospace">--color-text-main: ##808080</text><rect x="10" y="490" width="580" height="50" fill="#342a4e" filter="url(#shadow)" /><text x="20" y="525" fill="#fff0f5" font-size="20" font-family="monospace">DOWNLOAD CODE: dream-pop</text></svg>