<svg width="600" height="490" xmlns="http://www.w3.org/2000/svg"><rect x="0" y="0" width="600" height="490" fill="#CB99C9" /><defs>
    <linearGradient id="displayNameGradient" x1="0%" y1="0%" x2="100%" y2="0%">
      <stop offset="0%" style="stop-color:#FFBCD9;stop-opacity:1" />
      <stop offset="100%" style="stop-color:#A2A2D0;stop-opacity:1" />
    </linearGradient>
    <filter id="shadow" x="-20%" y="-20%" width="140%" height="140%">
      <feGaussianBlur in="SourceAlpha" stdDeviation="3"/>
      <feOffset dx="0" dy="4" result="offsetblur"/>
      <feComponentTransfer>
        <feFuncA type="linear" slope="0.5"/>
      </feComponentTransfer>
      <feMerge> 
        <feMergeNode/>
        <feMergeNode in="SourceGraphic"/>
      </feMerge>
    </filter>
  </defs><rect x="10" y="20" width="580" height="40" fill="url(#displayNameGradient)" filter="url(#shadow)" /><text x="20" y="50" fill="#FFFFFF" font-size="24" font-family="monospace">ɆⱠł₱₮ł₵ ₵ɄⱤVɆ</text><rect x="10" y="70" width="580" height="50" fill="#d4d41c" filter="url(#shadow)" /><text x="20" y="105" fill="#4B0082" font-size="20" font-family="monospace">--color-primary: #d4d41c</text><rect x="10" y="130" width="580" height="50" fill="#CB99C9" filter="url(#shadow)" /><text x="20" y="165" fill="#4B0082" font-size="20" font-family="monospace">--color-secondary: #CB99C9</text><rect x="10" y="190" width="580" height="50" fill="#FFBCD9" filter="url(#shadow)" /><text x="20" y="225" fill="#4B0082" font-size="20" font-family="monospace">--color-accent-1: #FFBCD9</text><rect x="10" y="250" width="580" height="50" fill="#A2A2D0" filter="url(#shadow)" /><text x="20" y="285" fill="#4B0082" font-size="20" font-family="monospace">--color-accent-2: #A2A2D0</text><rect x="10" y="310" width="580" height="50" fill="#000000" filter="url(#shadow)" /><text x="20" y="345" fill="#FFFFFF" font-size="20" font-family="monospace">--color-dark: #000000</text><rect x="10" y="370" width="580" height="50" fill="#FFFFFF" filter="url(#shadow)" /><text x="20" y="405" fill="#4B0082" font-size="20" font-family="monospace">--color-light: #FFFFFF</text><rect x="10" y="430" width="580" height="50" fill="#4B0082" filter="url(#shadow)" /><text x="20" y="465" fill="#FFFFFF" font-size="20" font-family="monospace">--color-text-main: #4B0082</text></svg>