<svg width="600" height="550" xmlns="http://www.w3.org/2000/svg"><rect x="0" y="0" width="600" height="550" fill="#FF4500" /><defs>
    <linearGradient id="displayNameGradient" x1="0%" y1="0%" x2="100%" y2="0%">
      <stop offset="0%" style="stop-color:#ff2600;stop-opacity:1" />
      <stop offset="100%" style="stop-color:#ad0000;stop-opacity:1" />
    </linearGradient>
    <filter id="shadow" x="-20%" y="-20%" width="140%" height="140%">
      <feGaussianBlur in="SourceAlpha" stdDeviation="3"/>
      <feOffset dx="0" dy="4" result="offsetblur"/>
      <feComponentTransfer>
        <feFuncA type="linear" slope="0.5"/>
      </feComponentTransfer>
      <feMerge> 
        <feMergeNode/>
        <feMergeNode in="SourceGraphic"/>
      </feMerge>
    </filter>
  </defs><rect x="10" y="20" width="580" height="40" fill="url(#displayNameGradient)" filter="url(#shadow)" /><text x="20" y="50" fill="#ff0000" font-size="24" font-family="monospace">Îğ•Å‚ğ•‹ â„•ğ•†ğ”»ğ”¼</text><rect x="10" y="70" width="580" height="50" fill="#8B0000" filter="url(#shadow)" /><text x="20" y="105" fill="#ecdfdf" font-size="20" font-family="monospace">--color-primary: #8B0000</text><rect x="10" y="130" width="580" height="50" fill="#FF4500" filter="url(#shadow)" /><text x="20" y="165" fill="#ecdfdf" font-size="20" font-family="monospace">--color-secondary: #FF4500</text><rect x="10" y="190" width="580" height="50" fill="#ff2600" filter="url(#shadow)" /><text x="20" y="225" fill="#ecdfdf" font-size="20" font-family="monospace">--color-accent-1: #ff2600</text><rect x="10" y="250" width="580" height="50" fill="#ad0000" filter="url(#shadow)" /><text x="20" y="285" fill="#ecdfdf" font-size="20" font-family="monospace">--color-accent-2: #ad0000</text><rect x="10" y="310" width="580" height="50" fill="#ff0000" filter="url(#shadow)" /><text x="20" y="345" fill="#ff0000" font-size="20" font-family="monospace">--color-dark: #ff0000</text><rect x="10" y="370" width="580" height="50" fill="#ff0000" filter="url(#shadow)" /><text x="20" y="405" fill="#ecdfdf" font-size="20" font-family="monospace">--color-light: #ff0000</text><rect x="10" y="430" width="580" height="50" fill="#ecdfdf" filter="url(#shadow)" /><text x="20" y="465" fill="#ff0000" font-size="20" font-family="monospace">--color-text-main: #ecdfdf</text><rect x="10" y="490" width="580" height="50" fill="#ff0000" filter="url(#shadow)" /><text x="20" y="525" fill="#ff0000" font-size="20" font-family="monospace">DOWNLOAD CODE: exit-node</text></svg>