<svg width="600" height="550" xmlns="http://www.w3.org/2000/svg"><rect x="0" y="0" width="600" height="550" fill="#d3869b" /><defs>
    <linearGradient id="displayNameGradient" x1="0%" y1="0%" x2="100%" y2="0%">
      <stop offset="0%" style="stop-color:#83a598;stop-opacity:1" />
      <stop offset="100%" style="stop-color:#b8bb26;stop-opacity:1" />
    </linearGradient>
    <filter id="shadow" x="-20%" y="-20%" width="140%" height="140%">
      <feGaussianBlur in="SourceAlpha" stdDeviation="3"/>
      <feOffset dx="0" dy="4" result="offsetblur"/>
      <feComponentTransfer>
        <feFuncA type="linear" slope="0.5"/>
      </feComponentTransfer>
      <feMerge> 
        <feMergeNode/>
        <feMergeNode in="SourceGraphic"/>
      </feMerge>
    </filter>
  </defs><rect x="10" y="20" width="580" height="40" fill="url(#displayNameGradient)" filter="url(#shadow)" /><text x="20" y="50" fill="#ebdbb2" font-size="24" font-family="monospace">Ħłρρłε</text><rect x="10" y="70" width="580" height="50" fill="#fabd2f" filter="url(#shadow)" /><text x="20" y="105" fill="#996b00" font-size="20" font-family="monospace">--color-primary: #fabd2f</text><rect x="10" y="130" width="580" height="50" fill="#d3869b" filter="url(#shadow)" /><text x="20" y="165" fill="#996b00" font-size="20" font-family="monospace">--color-secondary: #d3869b</text><rect x="10" y="190" width="580" height="50" fill="#83a598" filter="url(#shadow)" /><text x="20" y="225" fill="#996b00" font-size="20" font-family="monospace">--color-accent-1: #83a598</text><rect x="10" y="250" width="580" height="50" fill="#b8bb26" filter="url(#shadow)" /><text x="20" y="285" fill="#996b00" font-size="20" font-family="monospace">--color-accent-2: #b8bb26</text><rect x="10" y="310" width="580" height="50" fill="#282828" filter="url(#shadow)" /><text x="20" y="345" fill="#ebdbb2" font-size="20" font-family="monospace">--color-dark: #282828</text><rect x="10" y="370" width="580" height="50" fill="#ebdbb2" filter="url(#shadow)" /><text x="20" y="405" fill="#996b00" font-size="20" font-family="monospace">--color-light: #ebdbb2</text><rect x="10" y="430" width="580" height="50" fill="#996b00" filter="url(#shadow)" /><text x="20" y="465" fill="#ebdbb2" font-size="20" font-family="monospace">--color-text-main: #996b00</text><rect x="10" y="490" width="580" height="50" fill="#282828" filter="url(#shadow)" /><text x="20" y="525" fill="#ebdbb2" font-size="20" font-family="monospace">DOWNLOAD CODE: hippie</text></svg>