<svg width="600" height="550" xmlns="http://www.w3.org/2000/svg"><rect x="0" y="0" width="600" height="550" fill="#f800ff" /><defs>
    <linearGradient id="displayNameGradient" x1="0%" y1="0%" x2="100%" y2="0%">
      <stop offset="0%" style="stop-color:#1b1b1b;stop-opacity:1" />
      <stop offset="100%" style="stop-color:#333333;stop-opacity:1" />
    </linearGradient>
    <filter id="shadow" x="-20%" y="-20%" width="140%" height="140%">
      <feGaussianBlur in="SourceAlpha" stdDeviation="3"/>
      <feOffset dx="0" dy="4" result="offsetblur"/>
      <feComponentTransfer>
        <feFuncA type="linear" slope="0.5"/>
      </feComponentTransfer>
      <feMerge> 
        <feMergeNode/>
        <feMergeNode in="SourceGraphic"/>
      </feMerge>
    </filter>
  </defs><rect x="10" y="20" width="580" height="40" fill="url(#displayNameGradient)" filter="url(#shadow)" /><text x="20" y="50" fill="#f0f0f0" font-size="24" font-family="monospace">l33+</text><rect x="10" y="70" width="580" height="50" fill="#08fdd8" filter="url(#shadow)" /><text x="20" y="105" fill="#0033FF" font-size="20" font-family="monospace">--color-primary: #08fdd8</text><rect x="10" y="130" width="580" height="50" fill="#f800ff" filter="url(#shadow)" /><text x="20" y="165" fill="#0033FF" font-size="20" font-family="monospace">--color-secondary: #f800ff</text><rect x="10" y="190" width="580" height="50" fill="#1b1b1b" filter="url(#shadow)" /><text x="20" y="225" fill="#0033FF" font-size="20" font-family="monospace">--color-accent-1: #1b1b1b</text><rect x="10" y="250" width="580" height="50" fill="#333333" filter="url(#shadow)" /><text x="20" y="285" fill="#0033FF" font-size="20" font-family="monospace">--color-accent-2: #333333</text><rect x="10" y="310" width="580" height="50" fill="#080808" filter="url(#shadow)" /><text x="20" y="345" fill="#f0f0f0" font-size="20" font-family="monospace">--color-dark: #080808</text><rect x="10" y="370" width="580" height="50" fill="#f0f0f0" filter="url(#shadow)" /><text x="20" y="405" fill="#0033FF" font-size="20" font-family="monospace">--color-light: #f0f0f0</text><rect x="10" y="430" width="580" height="50" fill="#0033FF" filter="url(#shadow)" /><text x="20" y="465" fill="#f0f0f0" font-size="20" font-family="monospace">--color-text-main: #0033FF</text><rect x="10" y="490" width="580" height="50" fill="#080808" filter="url(#shadow)" /><text x="20" y="525" fill="#f0f0f0" font-size="20" font-family="monospace">DOWNLOAD CODE: l33t</text></svg>