<svg width="600" height="490" xmlns="http://www.w3.org/2000/svg"><rect x="0" y="0" width="600" height="490" fill="#FFC107" /><defs>
    <linearGradient id="displayNameGradient" x1="0%" y1="0%" x2="100%" y2="0%">
      <stop offset="0%" style="stop-color:#00ACC1;stop-opacity:1" />
      <stop offset="100%" style="stop-color:#E91E63;stop-opacity:1" />
    </linearGradient>
    <filter id="shadow" x="-20%" y="-20%" width="140%" height="140%">
      <feGaussianBlur in="SourceAlpha" stdDeviation="3"/>
      <feOffset dx="0" dy="4" result="offsetblur"/>
      <feComponentTransfer>
        <feFuncA type="linear" slope="0.5"/>
      </feComponentTransfer>
      <feMerge> 
        <feMergeNode/>
        <feMergeNode in="SourceGraphic"/>
      </feMerge>
    </filter>
  </defs><rect x="10" y="20" width="580" height="40" fill="url(#displayNameGradient)" filter="url(#shadow)" /><text x="20" y="50" fill="#E0E0E0" font-size="24" font-family="monospace">á¸ºá¾°Ç¤â±ºÏ¨â¸š ğ”½ğ•Œğ•‹ğ•Œâ„ğ”¸</text><rect x="10" y="70" width="580" height="50" fill="#4DB848" filter="url(#shadow)" /><text x="20" y="105" fill="#2b6b00" font-size="20" font-family="monospace">--color-primary: #4DB848</text><rect x="10" y="130" width="580" height="50" fill="#FFC107" filter="url(#shadow)" /><text x="20" y="165" fill="#2b6b00" font-size="20" font-family="monospace">--color-secondary: #FFC107</text><rect x="10" y="190" width="580" height="50" fill="#00ACC1" filter="url(#shadow)" /><text x="20" y="225" fill="#2b6b00" font-size="20" font-family="monospace">--color-accent-1: #00ACC1</text><rect x="10" y="250" width="580" height="50" fill="#E91E63" filter="url(#shadow)" /><text x="20" y="285" fill="#2b6b00" font-size="20" font-family="monospace">--color-accent-2: #E91E63</text><rect x="10" y="310" width="580" height="50" fill="#263238" filter="url(#shadow)" /><text x="20" y="345" fill="#E0E0E0" font-size="20" font-family="monospace">--color-dark: #263238</text><rect x="10" y="370" width="580" height="50" fill="#E0E0E0" filter="url(#shadow)" /><text x="20" y="405" fill="#2b6b00" font-size="20" font-family="monospace">--color-light: #E0E0E0</text><rect x="10" y="430" width="580" height="50" fill="#2b6b00" filter="url(#shadow)" /><text x="20" y="465" fill="#E0E0E0" font-size="20" font-family="monospace">--color-text-main: #2b6b00</text></svg>