<svg width="600" height="550" xmlns="http://www.w3.org/2000/svg"><rect x="0" y="0" width="600" height="550" fill="#2ec4b6" /><defs>
    <linearGradient id="displayNameGradient" x1="0%" y1="0%" x2="100%" y2="0%">
      <stop offset="0%" style="stop-color:#ffbf69;stop-opacity:1" />
      <stop offset="100%" style="stop-color:#cbf3f0;stop-opacity:1" />
    </linearGradient>
    <filter id="shadow" x="-20%" y="-20%" width="140%" height="140%">
      <feGaussianBlur in="SourceAlpha" stdDeviation="3"/>
      <feOffset dx="0" dy="4" result="offsetblur"/>
      <feComponentTransfer>
        <feFuncA type="linear" slope="0.5"/>
      </feComponentTransfer>
      <feMerge> 
        <feMergeNode/>
        <feMergeNode in="SourceGraphic"/>
      </feMerge>
    </filter>
  </defs><rect x="10" y="20" width="580" height="40" fill="url(#displayNameGradient)" filter="url(#shadow)" /><text x="20" y="50" fill="#fdfffc" font-size="24" font-family="monospace">MⓘⒶMⓘ</text><rect x="10" y="70" width="580" height="50" fill="#ff9f1c" filter="url(#shadow)" /><text x="20" y="105" fill="#011627" font-size="20" font-family="monospace">--color-primary: #ff9f1c</text><rect x="10" y="130" width="580" height="50" fill="#2ec4b6" filter="url(#shadow)" /><text x="20" y="165" fill="#011627" font-size="20" font-family="monospace">--color-secondary: #2ec4b6</text><rect x="10" y="190" width="580" height="50" fill="#ffbf69" filter="url(#shadow)" /><text x="20" y="225" fill="#011627" font-size="20" font-family="monospace">--color-accent-1: #ffbf69</text><rect x="10" y="250" width="580" height="50" fill="#cbf3f0" filter="url(#shadow)" /><text x="20" y="285" fill="#011627" font-size="20" font-family="monospace">--color-accent-2: #cbf3f0</text><rect x="10" y="310" width="580" height="50" fill="#011627" filter="url(#shadow)" /><text x="20" y="345" fill="#fdfffc" font-size="20" font-family="monospace">--color-dark: #011627</text><rect x="10" y="370" width="580" height="50" fill="#fdfffc" filter="url(#shadow)" /><text x="20" y="405" fill="#011627" font-size="20" font-family="monospace">--color-light: #fdfffc</text><rect x="10" y="430" width="580" height="50" fill="#011627" filter="url(#shadow)" /><text x="20" y="465" fill="#fdfffc" font-size="20" font-family="monospace">--color-text-main: #011627</text><rect x="10" y="490" width="580" height="50" fill="#011627" filter="url(#shadow)" /><text x="20" y="525" fill="#fdfffc" font-size="20" font-family="monospace">DOWNLOAD CODE: miami</text></svg>