<svg width="600" height="550" xmlns="http://www.w3.org/2000/svg"><rect x="0" y="0" width="600" height="550" fill="#211E1E" /><defs>
    <linearGradient id="displayNameGradient" x1="0%" y1="0%" x2="100%" y2="0%">
      <stop offset="0%" style="stop-color:#087E8B;stop-opacity:1" />
      <stop offset="100%" style="stop-color:#F2C641;stop-opacity:1" />
    </linearGradient>
    <filter id="shadow" x="-20%" y="-20%" width="140%" height="140%">
      <feGaussianBlur in="SourceAlpha" stdDeviation="3"/>
      <feOffset dx="0" dy="4" result="offsetblur"/>
      <feComponentTransfer>
        <feFuncA type="linear" slope="0.5"/>
      </feComponentTransfer>
      <feMerge> 
        <feMergeNode/>
        <feMergeNode in="SourceGraphic"/>
      </feMerge>
    </filter>
  </defs><rect x="10" y="20" width="580" height="40" fill="url(#displayNameGradient)" filter="url(#shadow)" /><text x="20" y="50" fill="#E0E1DD" font-size="24" font-family="monospace">ⓜⓞⓣⓞ</text><rect x="10" y="70" width="580" height="50" fill="#FF0000" filter="url(#shadow)" /><text x="20" y="105" fill="#ff0000" font-size="20" font-family="monospace">--color-primary: #FF0000</text><rect x="10" y="130" width="580" height="50" fill="#211E1E" filter="url(#shadow)" /><text x="20" y="165" fill="#ff0000" font-size="20" font-family="monospace">--color-secondary: #211E1E</text><rect x="10" y="190" width="580" height="50" fill="#087E8B" filter="url(#shadow)" /><text x="20" y="225" fill="#ff0000" font-size="20" font-family="monospace">--color-accent-1: #087E8B</text><rect x="10" y="250" width="580" height="50" fill="#F2C641" filter="url(#shadow)" /><text x="20" y="285" fill="#ff0000" font-size="20" font-family="monospace">--color-accent-2: #F2C641</text><rect x="10" y="310" width="580" height="50" fill="#0B3C5D" filter="url(#shadow)" /><text x="20" y="345" fill="#E0E1DD" font-size="20" font-family="monospace">--color-dark: #0B3C5D</text><rect x="10" y="370" width="580" height="50" fill="#E0E1DD" filter="url(#shadow)" /><text x="20" y="405" fill="#ff0000" font-size="20" font-family="monospace">--color-light: #E0E1DD</text><rect x="10" y="430" width="580" height="50" fill="#ff0000" filter="url(#shadow)" /><text x="20" y="465" fill="#E0E1DD" font-size="20" font-family="monospace">--color-text-main: #ff0000</text><rect x="10" y="490" width="580" height="50" fill="#0B3C5D" filter="url(#shadow)" /><text x="20" y="525" fill="#E0E1DD" font-size="20" font-family="monospace">DOWNLOAD CODE: moto</text></svg>