<svg width="600" height="550" xmlns="http://www.w3.org/2000/svg"><rect x="0" y="0" width="600" height="550" fill="#FF007F" /><defs>
    <linearGradient id="displayNameGradient" x1="0%" y1="0%" x2="100%" y2="0%">
      <stop offset="0%" style="stop-color:#8C8C8C;stop-opacity:1" />
      <stop offset="100%" style="stop-color:#9A9A9A;stop-opacity:1" />
    </linearGradient>
    <filter id="shadow" x="-20%" y="-20%" width="140%" height="140%">
      <feGaussianBlur in="SourceAlpha" stdDeviation="3"/>
      <feOffset dx="0" dy="4" result="offsetblur"/>
      <feComponentTransfer>
        <feFuncA type="linear" slope="0.5"/>
      </feComponentTransfer>
      <feMerge> 
        <feMergeNode/>
        <feMergeNode in="SourceGraphic"/>
      </feMerge>
    </filter>
  </defs><rect x="10" y="20" width="580" height="40" fill="url(#displayNameGradient)" filter="url(#shadow)" /><text x="20" y="50" fill="#E5E5E5" font-size="24" font-family="monospace">N3ØN ₵ØN₵RΣTΣ</text><rect x="10" y="70" width="580" height="50" fill="#00D9FF" filter="url(#shadow)" /><text x="20" y="105" fill="#757575" font-size="20" font-family="monospace">--color-primary: #00D9FF</text><rect x="10" y="130" width="580" height="50" fill="#FF007F" filter="url(#shadow)" /><text x="20" y="165" fill="#757575" font-size="20" font-family="monospace">--color-secondary: #FF007F</text><rect x="10" y="190" width="580" height="50" fill="#8C8C8C" filter="url(#shadow)" /><text x="20" y="225" fill="#757575" font-size="20" font-family="monospace">--color-accent-1: #8C8C8C</text><rect x="10" y="250" width="580" height="50" fill="#9A9A9A" filter="url(#shadow)" /><text x="20" y="285" fill="#757575" font-size="20" font-family="monospace">--color-accent-2: #9A9A9A</text><rect x="10" y="310" width="580" height="50" fill="#1A1A1A" filter="url(#shadow)" /><text x="20" y="345" fill="#E5E5E5" font-size="20" font-family="monospace">--color-dark: #1A1A1A</text><rect x="10" y="370" width="580" height="50" fill="#E5E5E5" filter="url(#shadow)" /><text x="20" y="405" fill="#757575" font-size="20" font-family="monospace">--color-light: #E5E5E5</text><rect x="10" y="430" width="580" height="50" fill="#757575" filter="url(#shadow)" /><text x="20" y="465" fill="#E5E5E5" font-size="20" font-family="monospace">--color-text-main: #757575</text><rect x="10" y="490" width="580" height="50" fill="#1A1A1A" filter="url(#shadow)" /><text x="20" y="525" fill="#E5E5E5" font-size="20" font-family="monospace">DOWNLOAD CODE: neon-concrete</text></svg>