<svg width="600" height="490" xmlns="http://www.w3.org/2000/svg"><rect x="0" y="0" width="600" height="490" fill="#756400" /><defs>
    <linearGradient id="displayNameGradient" x1="0%" y1="0%" x2="100%" y2="0%">
      <stop offset="0%" style="stop-color:#8B4513;stop-opacity:1" />
      <stop offset="100%" style="stop-color:#A9A9A9;stop-opacity:1" />
    </linearGradient>
    <filter id="shadow" x="-20%" y="-20%" width="140%" height="140%">
      <feGaussianBlur in="SourceAlpha" stdDeviation="3"/>
      <feOffset dx="0" dy="4" result="offsetblur"/>
      <feComponentTransfer>
        <feFuncA type="linear" slope="0.5"/>
      </feComponentTransfer>
      <feMerge> 
        <feMergeNode/>
        <feMergeNode in="SourceGraphic"/>
      </feMerge>
    </filter>
  </defs><rect x="10" y="20" width="580" height="40" fill="url(#displayNameGradient)" filter="url(#shadow)" /><text x="20" y="50" fill="#F5F5F5" font-size="24" font-family="monospace">â‚¦ğ•Œğ— ğ–¡ğ–¤ğ—¥$ğ•‹ğ”¸ğ•‹ğ•€ğ•†â„•</text><rect x="10" y="70" width="580" height="50" fill="#505050" filter="url(#shadow)" /><text x="20" y="105" fill="#3d3d3d" font-size="20" font-family="monospace">--color-primary: #505050</text><rect x="10" y="130" width="580" height="50" fill="#756400" filter="url(#shadow)" /><text x="20" y="165" fill="#3d3d3d" font-size="20" font-family="monospace">--color-secondary: #756400</text><rect x="10" y="190" width="580" height="50" fill="#8B4513" filter="url(#shadow)" /><text x="20" y="225" fill="#3d3d3d" font-size="20" font-family="monospace">--color-accent-1: #8B4513</text><rect x="10" y="250" width="580" height="50" fill="#A9A9A9" filter="url(#shadow)" /><text x="20" y="285" fill="#3d3d3d" font-size="20" font-family="monospace">--color-accent-2: #A9A9A9</text><rect x="10" y="310" width="580" height="50" fill="#2F4F4F" filter="url(#shadow)" /><text x="20" y="345" fill="#F5F5F5" font-size="20" font-family="monospace">--color-dark: #2F4F4F</text><rect x="10" y="370" width="580" height="50" fill="#F5F5F5" filter="url(#shadow)" /><text x="20" y="405" fill="#3d3d3d" font-size="20" font-family="monospace">--color-light: #F5F5F5</text><rect x="10" y="430" width="580" height="50" fill="#3d3d3d" filter="url(#shadow)" /><text x="20" y="465" fill="#F5F5F5" font-size="20" font-family="monospace">--color-text-main: #3d3d3d</text></svg>