<svg width="600" height="550" xmlns="http://www.w3.org/2000/svg"><rect x="0" y="0" width="600" height="550" fill="#4A4063" /><defs>
    <linearGradient id="displayNameGradient" x1="0%" y1="0%" x2="100%" y2="0%">
      <stop offset="0%" style="stop-color:#F4BEEE;stop-opacity:1" />
      <stop offset="100%" style="stop-color:#9E768F;stop-opacity:1" />
    </linearGradient>
    <filter id="shadow" x="-20%" y="-20%" width="140%" height="140%">
      <feGaussianBlur in="SourceAlpha" stdDeviation="3"/>
      <feOffset dx="0" dy="4" result="offsetblur"/>
      <feComponentTransfer>
        <feFuncA type="linear" slope="0.5"/>
      </feComponentTransfer>
      <feMerge> 
        <feMergeNode/>
        <feMergeNode in="SourceGraphic"/>
      </feMerge>
    </filter>
  </defs><rect x="10" y="20" width="580" height="40" fill="url(#displayNameGradient)" filter="url(#shadow)" /><text x="20" y="50" fill="#FFFFFF" font-size="24" font-family="monospace">ğ”“ğ”ğ”°ğ”±ğ”¢ğ”© ğ”Šğ”¬ğ”±ğ”¥</text><rect x="10" y="70" width="580" height="50" fill="#8A4F7D" filter="url(#shadow)" /><text x="20" y="105" fill="#4A4A4A" font-size="20" font-family="monospace">--color-primary: #8A4F7D</text><rect x="10" y="130" width="580" height="50" fill="#4A4063" filter="url(#shadow)" /><text x="20" y="165" fill="#4A4A4A" font-size="20" font-family="monospace">--color-secondary: #4A4063</text><rect x="10" y="190" width="580" height="50" fill="#F4BEEE" filter="url(#shadow)" /><text x="20" y="225" fill="#4A4A4A" font-size="20" font-family="monospace">--color-accent-1: #F4BEEE</text><rect x="10" y="250" width="580" height="50" fill="#9E768F" filter="url(#shadow)" /><text x="20" y="285" fill="#4A4A4A" font-size="20" font-family="monospace">--color-accent-2: #9E768F</text><rect x="10" y="310" width="580" height="50" fill="#22223B" filter="url(#shadow)" /><text x="20" y="345" fill="#FFFFFF" font-size="20" font-family="monospace">--color-dark: #22223B</text><rect x="10" y="370" width="580" height="50" fill="#FFFFFF" filter="url(#shadow)" /><text x="20" y="405" fill="#4A4A4A" font-size="20" font-family="monospace">--color-light: #FFFFFF</text><rect x="10" y="430" width="580" height="50" fill="#4A4A4A" filter="url(#shadow)" /><text x="20" y="465" fill="#FFFFFF" font-size="20" font-family="monospace">--color-text-main: #4A4A4A</text><rect x="10" y="490" width="580" height="50" fill="#22223B" filter="url(#shadow)" /><text x="20" y="525" fill="#FFFFFF" font-size="20" font-family="monospace">DOWNLOAD CODE: pastel-goth</text></svg>