<svg width="600" height="550" xmlns="http://www.w3.org/2000/svg"><rect x="0" y="0" width="600" height="550" fill="#CF9FFF" /><defs>
    <linearGradient id="displayNameGradient" x1="0%" y1="0%" x2="100%" y2="0%">
      <stop offset="0%" style="stop-color:#A4DEFF;stop-opacity:1" />
      <stop offset="100%" style="stop-color:#FFD670;stop-opacity:1" />
    </linearGradient>
    <filter id="shadow" x="-20%" y="-20%" width="140%" height="140%">
      <feGaussianBlur in="SourceAlpha" stdDeviation="3"/>
      <feOffset dx="0" dy="4" result="offsetblur"/>
      <feComponentTransfer>
        <feFuncA type="linear" slope="0.5"/>
      </feComponentTransfer>
      <feMerge> 
        <feMergeNode/>
        <feMergeNode in="SourceGraphic"/>
      </feMerge>
    </filter>
  </defs><rect x="10" y="20" width="580" height="40" fill="url(#displayNameGradient)" filter="url(#shadow)" /><text x="20" y="50" fill="#ffdbe1" font-size="24" font-family="monospace">✿ Pétäl Drëäm ✿</text><rect x="10" y="70" width="580" height="50" fill="#F78FB3" filter="url(#shadow)" /><text x="20" y="105" fill="#e85995" font-size="20" font-family="monospace">--color-primary: #F78FB3</text><rect x="10" y="130" width="580" height="50" fill="#CF9FFF" filter="url(#shadow)" /><text x="20" y="165" fill="#e85995" font-size="20" font-family="monospace">--color-secondary: #CF9FFF</text><rect x="10" y="190" width="580" height="50" fill="#A4DEFF" filter="url(#shadow)" /><text x="20" y="225" fill="#e85995" font-size="20" font-family="monospace">--color-accent-1: #A4DEFF</text><rect x="10" y="250" width="580" height="50" fill="#FFD670" filter="url(#shadow)" /><text x="20" y="285" fill="#e85995" font-size="20" font-family="monospace">--color-accent-2: #FFD670</text><rect x="10" y="310" width="580" height="50" fill="#7E5475" filter="url(#shadow)" /><text x="20" y="345" fill="#ffdbe1" font-size="20" font-family="monospace">--color-dark: #7E5475</text><rect x="10" y="370" width="580" height="50" fill="#ffdbe1" filter="url(#shadow)" /><text x="20" y="405" fill="#e85995" font-size="20" font-family="monospace">--color-light: #ffdbe1</text><rect x="10" y="430" width="580" height="50" fill="#e85995" filter="url(#shadow)" /><text x="20" y="465" fill="#ffdbe1" font-size="20" font-family="monospace">--color-text-main: #e85995</text><rect x="10" y="490" width="580" height="50" fill="#7E5475" filter="url(#shadow)" /><text x="20" y="525" fill="#ffdbe1" font-size="20" font-family="monospace">DOWNLOAD CODE: petal-dream</text></svg>