<svg width="600" height="550" xmlns="http://www.w3.org/2000/svg"><rect x="0" y="0" width="600" height="550" fill="#37ff00" /><defs>
    <linearGradient id="displayNameGradient" x1="0%" y1="0%" x2="100%" y2="0%">
      <stop offset="0%" style="stop-color:#FF4500;stop-opacity:1" />
      <stop offset="100%" style="stop-color:#C0C0C0;stop-opacity:1" />
    </linearGradient>
    <filter id="shadow" x="-20%" y="-20%" width="140%" height="140%">
      <feGaussianBlur in="SourceAlpha" stdDeviation="3"/>
      <feOffset dx="0" dy="4" result="offsetblur"/>
      <feComponentTransfer>
        <feFuncA type="linear" slope="0.5"/>
      </feComponentTransfer>
      <feMerge> 
        <feMergeNode/>
        <feMergeNode in="SourceGraphic"/>
      </feMerge>
    </filter>
  </defs><rect x="10" y="20" width="580" height="40" fill="url(#displayNameGradient)" filter="url(#shadow)" /><text x="20" y="50" fill="#dedede" font-size="24" font-family="monospace">☢️Pu-239☢️</text><rect x="10" y="70" width="580" height="50" fill="#A40000" filter="url(#shadow)" /><text x="20" y="105" fill="#730c0c" font-size="20" font-family="monospace">--color-primary: #A40000</text><rect x="10" y="130" width="580" height="50" fill="#37ff00" filter="url(#shadow)" /><text x="20" y="165" fill="#730c0c" font-size="20" font-family="monospace">--color-secondary: #37ff00</text><rect x="10" y="190" width="580" height="50" fill="#FF4500" filter="url(#shadow)" /><text x="20" y="225" fill="#730c0c" font-size="20" font-family="monospace">--color-accent-1: #FF4500</text><rect x="10" y="250" width="580" height="50" fill="#C0C0C0" filter="url(#shadow)" /><text x="20" y="285" fill="#730c0c" font-size="20" font-family="monospace">--color-accent-2: #C0C0C0</text><rect x="10" y="310" width="580" height="50" fill="#800000" filter="url(#shadow)" /><text x="20" y="345" fill="#dedede" font-size="20" font-family="monospace">--color-dark: #800000</text><rect x="10" y="370" width="580" height="50" fill="#dedede" filter="url(#shadow)" /><text x="20" y="405" fill="#730c0c" font-size="20" font-family="monospace">--color-light: #dedede</text><rect x="10" y="430" width="580" height="50" fill="#730c0c" filter="url(#shadow)" /><text x="20" y="465" fill="#dedede" font-size="20" font-family="monospace">--color-text-main: #730c0c</text><rect x="10" y="490" width="580" height="50" fill="#800000" filter="url(#shadow)" /><text x="20" y="525" fill="#dedede" font-size="20" font-family="monospace">DOWNLOAD CODE: plutonium</text></svg>