<svg width="600" height="550" xmlns="http://www.w3.org/2000/svg"><rect x="0" y="0" width="600" height="550" fill="#FFD700" /><defs>
    <linearGradient id="displayNameGradient" x1="0%" y1="0%" x2="100%" y2="0%">
      <stop offset="0%" style="stop-color:#00FF00;stop-opacity:1" />
      <stop offset="100%" style="stop-color:#FF007F;stop-opacity:1" />
    </linearGradient>
    <filter id="shadow" x="-20%" y="-20%" width="140%" height="140%">
      <feGaussianBlur in="SourceAlpha" stdDeviation="3"/>
      <feOffset dx="0" dy="4" result="offsetblur"/>
      <feComponentTransfer>
        <feFuncA type="linear" slope="0.5"/>
      </feComponentTransfer>
      <feMerge> 
        <feMergeNode/>
        <feMergeNode in="SourceGraphic"/>
      </feMerge>
    </filter>
  </defs><rect x="10" y="20" width="580" height="40" fill="url(#displayNameGradient)" filter="url(#shadow)" /><text x="20" y="50" fill="#FFA500" font-size="24" font-family="monospace">ᑭѕүᴄʜ</text><rect x="10" y="70" width="580" height="50" fill="#DF00FF" filter="url(#shadow)" /><text x="20" y="105" fill="#FFFFFF" font-size="20" font-family="monospace">--color-primary: #DF00FF</text><rect x="10" y="130" width="580" height="50" fill="#FFD700" filter="url(#shadow)" /><text x="20" y="165" fill="#FFFFFF" font-size="20" font-family="monospace">--color-secondary: #FFD700</text><rect x="10" y="190" width="580" height="50" fill="#00FF00" filter="url(#shadow)" /><text x="20" y="225" fill="#FFFFFF" font-size="20" font-family="monospace">--color-accent-1: #00FF00</text><rect x="10" y="250" width="580" height="50" fill="#FF007F" filter="url(#shadow)" /><text x="20" y="285" fill="#FFFFFF" font-size="20" font-family="monospace">--color-accent-2: #FF007F</text><rect x="10" y="310" width="580" height="50" fill="#0000FF" filter="url(#shadow)" /><text x="20" y="345" fill="#FFA500" font-size="20" font-family="monospace">--color-dark: #0000FF</text><rect x="10" y="370" width="580" height="50" fill="#FFA500" filter="url(#shadow)" /><text x="20" y="405" fill="#FFFFFF" font-size="20" font-family="monospace">--color-light: #FFA500</text><rect x="10" y="430" width="580" height="50" fill="#FFFFFF" filter="url(#shadow)" /><text x="20" y="465" fill="#FFA500" font-size="20" font-family="monospace">--color-text-main: #FFFFFF</text><rect x="10" y="490" width="580" height="50" fill="#0000FF" filter="url(#shadow)" /><text x="20" y="525" fill="#FFA500" font-size="20" font-family="monospace">DOWNLOAD CODE: psyc</text></svg>