<svg width="600" height="490" xmlns="http://www.w3.org/2000/svg"><rect x="0" y="0" width="600" height="490" fill="#FF6B6B" /><defs>
    <linearGradient id="displayNameGradient" x1="0%" y1="0%" x2="100%" y2="0%">
      <stop offset="0%" style="stop-color:#FFE66D;stop-opacity:1" />
      <stop offset="100%" style="stop-color:#4ECDC4;stop-opacity:1" />
    </linearGradient>
    <filter id="shadow" x="-20%" y="-20%" width="140%" height="140%">
      <feGaussianBlur in="SourceAlpha" stdDeviation="3"/>
      <feOffset dx="0" dy="4" result="offsetblur"/>
      <feComponentTransfer>
        <feFuncA type="linear" slope="0.5"/>
      </feComponentTransfer>
      <feMerge> 
        <feMergeNode/>
        <feMergeNode in="SourceGraphic"/>
      </feMerge>
    </filter>
  </defs><rect x="10" y="20" width="580" height="40" fill="url(#displayNameGradient)" filter="url(#shadow)" /><text x="20" y="50" fill="#F7FFF7" font-size="24" font-family="monospace">ҨบᎥƁᎥ†</text><rect x="10" y="70" width="580" height="50" fill="#0C7C59" filter="url(#shadow)" /><text x="20" y="105" fill="#00a300" font-size="20" font-family="monospace">--color-primary: #0C7C59</text><rect x="10" y="130" width="580" height="50" fill="#FF6B6B" filter="url(#shadow)" /><text x="20" y="165" fill="#00a300" font-size="20" font-family="monospace">--color-secondary: #FF6B6B</text><rect x="10" y="190" width="580" height="50" fill="#FFE66D" filter="url(#shadow)" /><text x="20" y="225" fill="#00a300" font-size="20" font-family="monospace">--color-accent-1: #FFE66D</text><rect x="10" y="250" width="580" height="50" fill="#4ECDC4" filter="url(#shadow)" /><text x="20" y="285" fill="#00a300" font-size="20" font-family="monospace">--color-accent-2: #4ECDC4</text><rect x="10" y="310" width="580" height="50" fill="#253031" filter="url(#shadow)" /><text x="20" y="345" fill="#F7FFF7" font-size="20" font-family="monospace">--color-dark: #253031</text><rect x="10" y="370" width="580" height="50" fill="#F7FFF7" filter="url(#shadow)" /><text x="20" y="405" fill="#00a300" font-size="20" font-family="monospace">--color-light: #F7FFF7</text><rect x="10" y="430" width="580" height="50" fill="#00a300" filter="url(#shadow)" /><text x="20" y="465" fill="#F7FFF7" font-size="20" font-family="monospace">--color-text-main: #00a300</text></svg>