<svg width="600" height="550" xmlns="http://www.w3.org/2000/svg"><rect x="0" y="0" width="600" height="550" fill="#00BFFF" /><defs>
    <linearGradient id="displayNameGradient" x1="0%" y1="0%" x2="100%" y2="0%">
      <stop offset="0%" style="stop-color:#FFD700;stop-opacity:1" />
      <stop offset="100%" style="stop-color:#32CD32;stop-opacity:1" />
    </linearGradient>
    <filter id="shadow" x="-20%" y="-20%" width="140%" height="140%">
      <feGaussianBlur in="SourceAlpha" stdDeviation="3"/>
      <feOffset dx="0" dy="4" result="offsetblur"/>
      <feComponentTransfer>
        <feFuncA type="linear" slope="0.5"/>
      </feComponentTransfer>
      <feMerge> 
        <feMergeNode/>
        <feMergeNode in="SourceGraphic"/>
      </feMerge>
    </filter>
  </defs><rect x="10" y="20" width="580" height="40" fill="url(#displayNameGradient)" filter="url(#shadow)" /><text x="20" y="50" fill="#F0E68C" font-size="24" font-family="monospace">✦☾⇢✧⇠☽✦</text><rect x="10" y="70" width="580" height="50" fill="#FF69B4" filter="url(#shadow)" /><text x="20" y="105" fill="#2F4F4F" font-size="20" font-family="monospace">--color-primary: #FF69B4</text><rect x="10" y="130" width="580" height="50" fill="#00BFFF" filter="url(#shadow)" /><text x="20" y="165" fill="#2F4F4F" font-size="20" font-family="monospace">--color-secondary: #00BFFF</text><rect x="10" y="190" width="580" height="50" fill="#FFD700" filter="url(#shadow)" /><text x="20" y="225" fill="#2F4F4F" font-size="20" font-family="monospace">--color-accent-1: #FFD700</text><rect x="10" y="250" width="580" height="50" fill="#32CD32" filter="url(#shadow)" /><text x="20" y="285" fill="#2F4F4F" font-size="20" font-family="monospace">--color-accent-2: #32CD32</text><rect x="10" y="310" width="580" height="50" fill="#8B008B" filter="url(#shadow)" /><text x="20" y="345" fill="#F0E68C" font-size="20" font-family="monospace">--color-dark: #8B008B</text><rect x="10" y="370" width="580" height="50" fill="#F0E68C" filter="url(#shadow)" /><text x="20" y="405" fill="#2F4F4F" font-size="20" font-family="monospace">--color-light: #F0E68C</text><rect x="10" y="430" width="580" height="50" fill="#2F4F4F" filter="url(#shadow)" /><text x="20" y="465" fill="#F0E68C" font-size="20" font-family="monospace">--color-text-main: #2F4F4F</text><rect x="10" y="490" width="580" height="50" fill="#8B008B" filter="url(#shadow)" /><text x="20" y="525" fill="#F0E68C" font-size="20" font-family="monospace">DOWNLOAD CODE: rainbow</text></svg>