<svg width="600" height="550" xmlns="http://www.w3.org/2000/svg"><rect x="0" y="0" width="600" height="550" fill="#FFD1AC" /><defs>
    <linearGradient id="displayNameGradient" x1="0%" y1="0%" x2="100%" y2="0%">
      <stop offset="0%" style="stop-color:#FFB4A2;stop-opacity:1" />
      <stop offset="100%" style="stop-color:#E29587;stop-opacity:1" />
    </linearGradient>
    <filter id="shadow" x="-20%" y="-20%" width="140%" height="140%">
      <feGaussianBlur in="SourceAlpha" stdDeviation="3"/>
      <feOffset dx="0" dy="4" result="offsetblur"/>
      <feComponentTransfer>
        <feFuncA type="linear" slope="0.5"/>
      </feComponentTransfer>
      <feMerge> 
        <feMergeNode/>
        <feMergeNode in="SourceGraphic"/>
      </feMerge>
    </filter>
  </defs><rect x="10" y="20" width="580" height="40" fill="url(#displayNameGradient)" filter="url(#shadow)" /><text x="20" y="50" fill="#FFF0E3" font-size="24" font-family="monospace">ℕ๏ภςє</text><rect x="10" y="70" width="580" height="50" fill="#FF9A8A" filter="url(#shadow)" /><text x="20" y="105" fill="#5C3A4D" font-size="20" font-family="monospace">--color-primary: #FF9A8A</text><rect x="10" y="130" width="580" height="50" fill="#FFD1AC" filter="url(#shadow)" /><text x="20" y="165" fill="#5C3A4D" font-size="20" font-family="monospace">--color-secondary: #FFD1AC</text><rect x="10" y="190" width="580" height="50" fill="#FFB4A2" filter="url(#shadow)" /><text x="20" y="225" fill="#5C3A4D" font-size="20" font-family="monospace">--color-accent-1: #FFB4A2</text><rect x="10" y="250" width="580" height="50" fill="#E29587" filter="url(#shadow)" /><text x="20" y="285" fill="#5C3A4D" font-size="20" font-family="monospace">--color-accent-2: #E29587</text><rect x="10" y="310" width="580" height="50" fill="#C6726B" filter="url(#shadow)" /><text x="20" y="345" fill="#FFF0E3" font-size="20" font-family="monospace">--color-dark: #C6726B</text><rect x="10" y="370" width="580" height="50" fill="#FFF0E3" filter="url(#shadow)" /><text x="20" y="405" fill="#5C3A4D" font-size="20" font-family="monospace">--color-light: #FFF0E3</text><rect x="10" y="430" width="580" height="50" fill="#5C3A4D" filter="url(#shadow)" /><text x="20" y="465" fill="#FFF0E3" font-size="20" font-family="monospace">--color-text-main: #5C3A4D</text><rect x="10" y="490" width="580" height="50" fill="#C6726B" filter="url(#shadow)" /><text x="20" y="525" fill="#FFF0E3" font-size="20" font-family="monospace">DOWNLOAD CODE: salmon</text></svg>