<svg width="600" height="490" xmlns="http://www.w3.org/2000/svg"><rect x="0" y="0" width="600" height="490" fill="#A77DC2" /><defs>
    <linearGradient id="displayNameGradient" x1="0%" y1="0%" x2="100%" y2="0%">
      <stop offset="0%" style="stop-color:#58C9B9;stop-opacity:1" />
      <stop offset="100%" style="stop-color:#F4ACB7;stop-opacity:1" />
    </linearGradient>
    <filter id="shadow" x="-20%" y="-20%" width="140%" height="140%">
      <feGaussianBlur in="SourceAlpha" stdDeviation="3"/>
      <feOffset dx="0" dy="4" result="offsetblur"/>
      <feComponentTransfer>
        <feFuncA type="linear" slope="0.5"/>
      </feComponentTransfer>
      <feMerge> 
        <feMergeNode/>
        <feMergeNode in="SourceGraphic"/>
      </feMerge>
    </filter>
  </defs><rect x="10" y="20" width="580" height="40" fill="url(#displayNameGradient)" filter="url(#shadow)" /><text x="20" y="50" fill="#ECEFF1" font-size="24" font-family="monospace">ğš›ğšğšœğšŒğšğš—ğšŒğš</text><rect x="10" y="70" width="580" height="50" fill="#35465C" filter="url(#shadow)" /><text x="20" y="105" fill="#b25ed9" font-size="20" font-family="monospace">--color-primary: #35465C</text><rect x="10" y="130" width="580" height="50" fill="#A77DC2" filter="url(#shadow)" /><text x="20" y="165" fill="#b25ed9" font-size="20" font-family="monospace">--color-secondary: #A77DC2</text><rect x="10" y="190" width="580" height="50" fill="#58C9B9" filter="url(#shadow)" /><text x="20" y="225" fill="#b25ed9" font-size="20" font-family="monospace">--color-accent-1: #58C9B9</text><rect x="10" y="250" width="580" height="50" fill="#F4ACB7" filter="url(#shadow)" /><text x="20" y="285" fill="#b25ed9" font-size="20" font-family="monospace">--color-accent-2: #F4ACB7</text><rect x="10" y="310" width="580" height="50" fill="#263238" filter="url(#shadow)" /><text x="20" y="345" fill="#ECEFF1" font-size="20" font-family="monospace">--color-dark: #263238</text><rect x="10" y="370" width="580" height="50" fill="#ECEFF1" filter="url(#shadow)" /><text x="20" y="405" fill="#b25ed9" font-size="20" font-family="monospace">--color-light: #ECEFF1</text><rect x="10" y="430" width="580" height="50" fill="#b25ed9" filter="url(#shadow)" /><text x="20" y="465" fill="#ECEFF1" font-size="20" font-family="monospace">--color-text-main: #b25ed9</text></svg>