<svg width="600" height="550" xmlns="http://www.w3.org/2000/svg"><rect x="0" y="0" width="600" height="550" fill="#00E5FF" /><defs>
    <linearGradient id="displayNameGradient" x1="0%" y1="0%" x2="100%" y2="0%">
      <stop offset="0%" style="stop-color:#CDDC39;stop-opacity:1" />
      <stop offset="100%" style="stop-color:#FFEB3B;stop-opacity:1" />
    </linearGradient>
    <filter id="shadow" x="-20%" y="-20%" width="140%" height="140%">
      <feGaussianBlur in="SourceAlpha" stdDeviation="3"/>
      <feOffset dx="0" dy="4" result="offsetblur"/>
      <feComponentTransfer>
        <feFuncA type="linear" slope="0.5"/>
      </feComponentTransfer>
      <feMerge> 
        <feMergeNode/>
        <feMergeNode in="SourceGraphic"/>
      </feMerge>
    </filter>
  </defs><rect x="10" y="20" width="580" height="40" fill="url(#displayNameGradient)" filter="url(#shadow)" /><text x="20" y="50" fill="#F5F5F5" font-size="24" font-family="monospace">ğ•¾ğ–‘ğ–Šğ–†ğ–Ÿğ–Š</text><rect x="10" y="70" width="580" height="50" fill="#C2185B" filter="url(#shadow)" /><text x="20" y="105" fill="#ad8800" font-size="20" font-family="monospace">--color-primary: #C2185B</text><rect x="10" y="130" width="580" height="50" fill="#00E5FF" filter="url(#shadow)" /><text x="20" y="165" fill="#ad8800" font-size="20" font-family="monospace">--color-secondary: #00E5FF</text><rect x="10" y="190" width="580" height="50" fill="#CDDC39" filter="url(#shadow)" /><text x="20" y="225" fill="#ad8800" font-size="20" font-family="monospace">--color-accent-1: #CDDC39</text><rect x="10" y="250" width="580" height="50" fill="#FFEB3B" filter="url(#shadow)" /><text x="20" y="285" fill="#ad8800" font-size="20" font-family="monospace">--color-accent-2: #FFEB3B</text><rect x="10" y="310" width="580" height="50" fill="#212121" filter="url(#shadow)" /><text x="20" y="345" fill="#F5F5F5" font-size="20" font-family="monospace">--color-dark: #212121</text><rect x="10" y="370" width="580" height="50" fill="#F5F5F5" filter="url(#shadow)" /><text x="20" y="405" fill="#ad8800" font-size="20" font-family="monospace">--color-light: #F5F5F5</text><rect x="10" y="430" width="580" height="50" fill="#ad8800" filter="url(#shadow)" /><text x="20" y="465" fill="#F5F5F5" font-size="20" font-family="monospace">--color-text-main: #ad8800</text><rect x="10" y="490" width="580" height="50" fill="#212121" filter="url(#shadow)" /><text x="20" y="525" fill="#F5F5F5" font-size="20" font-family="monospace">DOWNLOAD CODE: sleeze</text></svg>