<svg width="600" height="550" xmlns="http://www.w3.org/2000/svg"><rect x="0" y="0" width="600" height="550" fill="#000000" /><defs>
    <linearGradient id="displayNameGradient" x1="0%" y1="0%" x2="100%" y2="0%">
      <stop offset="0%" style="stop-color:#ff0000;stop-opacity:1" />
      <stop offset="100%" style="stop-color:#ffff00;stop-opacity:1" />
    </linearGradient>
    <filter id="shadow" x="-20%" y="-20%" width="140%" height="140%">
      <feGaussianBlur in="SourceAlpha" stdDeviation="3"/>
      <feOffset dx="0" dy="4" result="offsetblur"/>
      <feComponentTransfer>
        <feFuncA type="linear" slope="0.5"/>
      </feComponentTransfer>
      <feMerge> 
        <feMergeNode/>
        <feMergeNode in="SourceGraphic"/>
      </feMerge>
    </filter>
  </defs><rect x="10" y="20" width="580" height="40" fill="url(#displayNameGradient)" filter="url(#shadow)" /><text x="20" y="50" fill="#ffffff" font-size="24" font-family="monospace">S☉l@r ⒻⓁⒶⓇⒺ</text><rect x="10" y="70" width="580" height="50" fill="#ffffff" filter="url(#shadow)" /><text x="20" y="105" fill="#282828" font-size="20" font-family="monospace">--color-primary: #ffffff</text><rect x="10" y="130" width="580" height="50" fill="#000000" filter="url(#shadow)" /><text x="20" y="165" fill="#282828" font-size="20" font-family="monospace">--color-secondary: #000000</text><rect x="10" y="190" width="580" height="50" fill="#ff0000" filter="url(#shadow)" /><text x="20" y="225" fill="#282828" font-size="20" font-family="monospace">--color-accent-1: #ff0000</text><rect x="10" y="250" width="580" height="50" fill="#ffff00" filter="url(#shadow)" /><text x="20" y="285" fill="#282828" font-size="20" font-family="monospace">--color-accent-2: #ffff00</text><rect x="10" y="310" width="580" height="50" fill="#000000" filter="url(#shadow)" /><text x="20" y="345" fill="#ffffff" font-size="20" font-family="monospace">--color-dark: #000000</text><rect x="10" y="370" width="580" height="50" fill="#ffffff" filter="url(#shadow)" /><text x="20" y="405" fill="#282828" font-size="20" font-family="monospace">--color-light: #ffffff</text><rect x="10" y="430" width="580" height="50" fill="#282828" filter="url(#shadow)" /><text x="20" y="465" fill="#ffffff" font-size="20" font-family="monospace">--color-text-main: #282828</text><rect x="10" y="490" width="580" height="50" fill="#000000" filter="url(#shadow)" /><text x="20" y="525" fill="#ffffff" font-size="20" font-family="monospace">DOWNLOAD CODE: solar-flare</text></svg>