<svg width="600" height="550" xmlns="http://www.w3.org/2000/svg"><rect x="0" y="0" width="600" height="550" fill="#7ec850" /><defs>
    <linearGradient id="displayNameGradient" x1="0%" y1="0%" x2="100%" y2="0%">
      <stop offset="0%" style="stop-color:#ffd700;stop-opacity:1" />
      <stop offset="100%" style="stop-color:#40e0d0;stop-opacity:1" />
    </linearGradient>
    <filter id="shadow" x="-20%" y="-20%" width="140%" height="140%">
      <feGaussianBlur in="SourceAlpha" stdDeviation="3"/>
      <feOffset dx="0" dy="4" result="offsetblur"/>
      <feComponentTransfer>
        <feFuncA type="linear" slope="0.5"/>
      </feComponentTransfer>
      <feMerge> 
        <feMergeNode/>
        <feMergeNode in="SourceGraphic"/>
      </feMerge>
    </filter>
  </defs><rect x="10" y="20" width="580" height="40" fill="url(#displayNameGradient)" filter="url(#shadow)" /><text x="20" y="50" fill="#f0f8ff" font-size="24" font-family="monospace">S☼LΛRPUNK</text><rect x="10" y="70" width="580" height="50" fill="#ff8c00" filter="url(#shadow)" /><text x="20" y="105" fill="#3c6e71" font-size="20" font-family="monospace">--color-primary: #ff8c00</text><rect x="10" y="130" width="580" height="50" fill="#7ec850" filter="url(#shadow)" /><text x="20" y="165" fill="#3c6e71" font-size="20" font-family="monospace">--color-secondary: #7ec850</text><rect x="10" y="190" width="580" height="50" fill="#ffd700" filter="url(#shadow)" /><text x="20" y="225" fill="#3c6e71" font-size="20" font-family="monospace">--color-accent-1: #ffd700</text><rect x="10" y="250" width="580" height="50" fill="#40e0d0" filter="url(#shadow)" /><text x="20" y="285" fill="#3c6e71" font-size="20" font-family="monospace">--color-accent-2: #40e0d0</text><rect x="10" y="310" width="580" height="50" fill="#005a51" filter="url(#shadow)" /><text x="20" y="345" fill="#f0f8ff" font-size="20" font-family="monospace">--color-dark: #005a51</text><rect x="10" y="370" width="580" height="50" fill="#f0f8ff" filter="url(#shadow)" /><text x="20" y="405" fill="#3c6e71" font-size="20" font-family="monospace">--color-light: #f0f8ff</text><rect x="10" y="430" width="580" height="50" fill="#3c6e71" filter="url(#shadow)" /><text x="20" y="465" fill="#f0f8ff" font-size="20" font-family="monospace">--color-text-main: #3c6e71</text><rect x="10" y="490" width="580" height="50" fill="#005a51" filter="url(#shadow)" /><text x="20" y="525" fill="#f0f8ff" font-size="20" font-family="monospace">DOWNLOAD CODE: solarpunk</text></svg>