<svg width="600" height="490" xmlns="http://www.w3.org/2000/svg"><rect x="0" y="0" width="600" height="490" fill="#ffffff" /><defs>
    <linearGradient id="displayNameGradient" x1="0%" y1="0%" x2="100%" y2="0%">
      <stop offset="0%" style="stop-color:#ff6f61;stop-opacity:1" />
      <stop offset="100%" style="stop-color:#ffd700;stop-opacity:1" />
    </linearGradient>
    <filter id="shadow" x="-20%" y="-20%" width="140%" height="140%">
      <feGaussianBlur in="SourceAlpha" stdDeviation="3"/>
      <feOffset dx="0" dy="4" result="offsetblur"/>
      <feComponentTransfer>
        <feFuncA type="linear" slope="0.5"/>
      </feComponentTransfer>
      <feMerge> 
        <feMergeNode/>
        <feMergeNode in="SourceGraphic"/>
      </feMerge>
    </filter>
  </defs><rect x="10" y="20" width="580" height="40" fill="url(#displayNameGradient)" filter="url(#shadow)" /><text x="20" y="50" fill="#f8f9fa" font-size="24" font-family="monospace">🛸🛸🛸</text><rect x="10" y="70" width="580" height="50" fill="#0b3d91" filter="url(#shadow)" /><text x="20" y="105" fill="595959;" font-size="20" font-family="monospace">--color-primary: #0b3d91</text><rect x="10" y="130" width="580" height="50" fill="#ffffff" filter="url(#shadow)" /><text x="20" y="165" fill="595959;" font-size="20" font-family="monospace">--color-secondary: #ffffff</text><rect x="10" y="190" width="580" height="50" fill="#ff6f61" filter="url(#shadow)" /><text x="20" y="225" fill="595959;" font-size="20" font-family="monospace">--color-accent-1: #ff6f61</text><rect x="10" y="250" width="580" height="50" fill="#ffd700" filter="url(#shadow)" /><text x="20" y="285" fill="595959;" font-size="20" font-family="monospace">--color-accent-2: #ffd700</text><rect x="10" y="310" width="580" height="50" fill="#000080" filter="url(#shadow)" /><text x="20" y="345" fill="#f8f9fa" font-size="20" font-family="monospace">--color-dark: #000080</text><rect x="10" y="370" width="580" height="50" fill="#f8f9fa" filter="url(#shadow)" /><text x="20" y="405" fill="595959;" font-size="20" font-family="monospace">--color-light: #f8f9fa</text><rect x="10" y="430" width="580" height="50" fill="595959;" filter="url(#shadow)" /><text x="20" y="465" fill="#f8f9fa" font-size="20" font-family="monospace">--color-text-main: 595959;</text></svg>