<svg width="600" height="550" xmlns="http://www.w3.org/2000/svg"><rect x="0" y="0" width="600" height="550" fill="#7a6fbe" /><defs>
    <linearGradient id="displayNameGradient" x1="0%" y1="0%" x2="100%" y2="0%">
      <stop offset="0%" style="stop-color:#9ad3de;stop-opacity:1" />
      <stop offset="100%" style="stop-color:#ffffff;stop-opacity:1" />
    </linearGradient>
    <filter id="shadow" x="-20%" y="-20%" width="140%" height="140%">
      <feGaussianBlur in="SourceAlpha" stdDeviation="3"/>
      <feOffset dx="0" dy="4" result="offsetblur"/>
      <feComponentTransfer>
        <feFuncA type="linear" slope="0.5"/>
      </feComponentTransfer>
      <feMerge> 
        <feMergeNode/>
        <feMergeNode in="SourceGraphic"/>
      </feMerge>
    </filter>
  </defs><rect x="10" y="20" width="580" height="40" fill="url(#displayNameGradient)" filter="url(#shadow)" /><text x="20" y="50" fill="#f4f4f4" font-size="24" font-family="monospace">Spiral✵Galaxy</text><rect x="10" y="70" width="580" height="50" fill="#5698c4" filter="url(#shadow)" /><text x="20" y="105" fill="#353535" font-size="20" font-family="monospace">--color-primary: #5698c4</text><rect x="10" y="130" width="580" height="50" fill="#7a6fbe" filter="url(#shadow)" /><text x="20" y="165" fill="#353535" font-size="20" font-family="monospace">--color-secondary: #7a6fbe</text><rect x="10" y="190" width="580" height="50" fill="#9ad3de" filter="url(#shadow)" /><text x="20" y="225" fill="#353535" font-size="20" font-family="monospace">--color-accent-1: #9ad3de</text><rect x="10" y="250" width="580" height="50" fill="#ffffff" filter="url(#shadow)" /><text x="20" y="285" fill="#353535" font-size="20" font-family="monospace">--color-accent-2: #ffffff</text><rect x="10" y="310" width="580" height="50" fill="#353535" filter="url(#shadow)" /><text x="20" y="345" fill="#f4f4f4" font-size="20" font-family="monospace">--color-dark: #353535</text><rect x="10" y="370" width="580" height="50" fill="#f4f4f4" filter="url(#shadow)" /><text x="20" y="405" fill="#353535" font-size="20" font-family="monospace">--color-light: #f4f4f4</text><rect x="10" y="430" width="580" height="50" fill="#353535" filter="url(#shadow)" /><text x="20" y="465" fill="#f4f4f4" font-size="20" font-family="monospace">--color-text-main: #353535</text><rect x="10" y="490" width="580" height="50" fill="#353535" filter="url(#shadow)" /><text x="20" y="525" fill="#f4f4f4" font-size="20" font-family="monospace">DOWNLOAD CODE: spiral</text></svg>