<svg width="600" height="490" xmlns="http://www.w3.org/2000/svg"><rect x="0" y="0" width="600" height="490" fill="#0A8F08" /><defs>
    <linearGradient id="displayNameGradient" x1="0%" y1="0%" x2="100%" y2="0%">
      <stop offset="0%" style="stop-color:#FFD700;stop-opacity:1" />
      <stop offset="100%" style="stop-color:#6A0DAD;stop-opacity:1" />
    </linearGradient>
    <filter id="shadow" x="-20%" y="-20%" width="140%" height="140%">
      <feGaussianBlur in="SourceAlpha" stdDeviation="3"/>
      <feOffset dx="0" dy="4" result="offsetblur"/>
      <feComponentTransfer>
        <feFuncA type="linear" slope="0.5"/>
      </feComponentTransfer>
      <feMerge> 
        <feMergeNode/>
        <feMergeNode in="SourceGraphic"/>
      </feMerge>
    </filter>
  </defs><rect x="10" y="20" width="580" height="40" fill="url(#displayNameGradient)" filter="url(#shadow)" /><text x="20" y="50" fill="#F8F9FA" font-size="24" font-family="monospace">ğ•¿ğ–ğ–Š ğ•¾ğ–•ğ–Šğ–ˆğ–™ğ–†ğ–ˆğ–‘ğ–Š</text><rect x="10" y="70" width="580" height="50" fill="#E03E3E" filter="url(#shadow)" /><text x="20" y="105" fill="#333333" font-size="20" font-family="monospace">--color-primary: #E03E3E</text><rect x="10" y="130" width="580" height="50" fill="#0A8F08" filter="url(#shadow)" /><text x="20" y="165" fill="#333333" font-size="20" font-family="monospace">--color-secondary: #0A8F08</text><rect x="10" y="190" width="580" height="50" fill="#FFD700" filter="url(#shadow)" /><text x="20" y="225" fill="#333333" font-size="20" font-family="monospace">--color-accent-1: #FFD700</text><rect x="10" y="250" width="580" height="50" fill="#6A0DAD" filter="url(#shadow)" /><text x="20" y="285" fill="#333333" font-size="20" font-family="monospace">--color-accent-2: #6A0DAD</text><rect x="10" y="310" width="580" height="50" fill="#212529" filter="url(#shadow)" /><text x="20" y="345" fill="#F8F9FA" font-size="20" font-family="monospace">--color-dark: #212529</text><rect x="10" y="370" width="580" height="50" fill="#F8F9FA" filter="url(#shadow)" /><text x="20" y="405" fill="#333333" font-size="20" font-family="monospace">--color-light: #F8F9FA</text><rect x="10" y="430" width="580" height="50" fill="#333333" filter="url(#shadow)" /><text x="20" y="465" fill="#F8F9FA" font-size="20" font-family="monospace">--color-text-main: #333333</text></svg>