<svg width="600" height="490" xmlns="http://www.w3.org/2000/svg"><rect x="0" y="0" width="600" height="490" fill="#7FFFD4" /><defs>
    <linearGradient id="displayNameGradient" x1="0%" y1="0%" x2="100%" y2="0%">
      <stop offset="0%" style="stop-color:#A7D30C;stop-opacity:1" />
      <stop offset="100%" style="stop-color:#E6E6FA;stop-opacity:1" />
    </linearGradient>
    <filter id="shadow" x="-20%" y="-20%" width="140%" height="140%">
      <feGaussianBlur in="SourceAlpha" stdDeviation="3"/>
      <feOffset dx="0" dy="4" result="offsetblur"/>
      <feComponentTransfer>
        <feFuncA type="linear" slope="0.5"/>
      </feComponentTransfer>
      <feMerge> 
        <feMergeNode/>
        <feMergeNode in="SourceGraphic"/>
      </feMerge>
    </filter>
  </defs><rect x="10" y="20" width="580" height="40" fill="url(#displayNameGradient)" filter="url(#shadow)" /><text x="20" y="50" fill="#F0FFF0" font-size="24" font-family="monospace">☢️U-235☢️</text><rect x="10" y="70" width="580" height="50" fill="#4F7942" filter="url(#shadow)" /><text x="20" y="105" fill="#4F7942" font-size="20" font-family="monospace">--color-primary: #4F7942</text><rect x="10" y="130" width="580" height="50" fill="#7FFFD4" filter="url(#shadow)" /><text x="20" y="165" fill="#4F7942" font-size="20" font-family="monospace">--color-secondary: #7FFFD4</text><rect x="10" y="190" width="580" height="50" fill="#A7D30C" filter="url(#shadow)" /><text x="20" y="225" fill="#4F7942" font-size="20" font-family="monospace">--color-accent-1: #A7D30C</text><rect x="10" y="250" width="580" height="50" fill="#E6E6FA" filter="url(#shadow)" /><text x="20" y="285" fill="#4F7942" font-size="20" font-family="monospace">--color-accent-2: #E6E6FA</text><rect x="10" y="310" width="580" height="50" fill="#003300" filter="url(#shadow)" /><text x="20" y="345" fill="#F0FFF0" font-size="20" font-family="monospace">--color-dark: #003300</text><rect x="10" y="370" width="580" height="50" fill="#F0FFF0" filter="url(#shadow)" /><text x="20" y="405" fill="#4F7942" font-size="20" font-family="monospace">--color-light: #F0FFF0</text><rect x="10" y="430" width="580" height="50" fill="#4F7942" filter="url(#shadow)" /><text x="20" y="465" fill="#F0FFF0" font-size="20" font-family="monospace">--color-text-main: #4F7942</text></svg>