<svg width="600" height="550" xmlns="http://www.w3.org/2000/svg"><rect x="0" y="0" width="600" height="550" fill="#1c3b3a" /><defs>
    <linearGradient id="displayNameGradient" x1="0%" y1="0%" x2="100%" y2="0%">
      <stop offset="0%" style="stop-color:#4a7070;stop-opacity:1" />
      <stop offset="100%" style="stop-color:#729595;stop-opacity:1" />
    </linearGradient>
    <filter id="shadow" x="-20%" y="-20%" width="140%" height="140%">
      <feGaussianBlur in="SourceAlpha" stdDeviation="3"/>
      <feOffset dx="0" dy="4" result="offsetblur"/>
      <feComponentTransfer>
        <feFuncA type="linear" slope="0.5"/>
      </feComponentTransfer>
      <feMerge> 
        <feMergeNode/>
        <feMergeNode in="SourceGraphic"/>
      </feMerge>
    </filter>
  </defs><rect x="10" y="20" width="580" height="40" fill="url(#displayNameGradient)" filter="url(#shadow)" /><text x="20" y="50" fill="#cfd8dc" font-size="24" font-family="monospace">Y₁₀ₖ</text><rect x="10" y="70" width="580" height="50" fill="#0a0f0d" filter="url(#shadow)" /><text x="20" y="105" fill="#00444d" font-size="20" font-family="monospace">--color-primary: #0a0f0d</text><rect x="10" y="130" width="580" height="50" fill="#1c3b3a" filter="url(#shadow)" /><text x="20" y="165" fill="#00444d" font-size="20" font-family="monospace">--color-secondary: #1c3b3a</text><rect x="10" y="190" width="580" height="50" fill="#4a7070" filter="url(#shadow)" /><text x="20" y="225" fill="#00444d" font-size="20" font-family="monospace">--color-accent-1: #4a7070</text><rect x="10" y="250" width="580" height="50" fill="#729595" filter="url(#shadow)" /><text x="20" y="285" fill="#00444d" font-size="20" font-family="monospace">--color-accent-2: #729595</text><rect x="10" y="310" width="580" height="50" fill="#050708" filter="url(#shadow)" /><text x="20" y="345" fill="#cfd8dc" font-size="20" font-family="monospace">--color-dark: #050708</text><rect x="10" y="370" width="580" height="50" fill="#cfd8dc" filter="url(#shadow)" /><text x="20" y="405" fill="#00444d" font-size="20" font-family="monospace">--color-light: #cfd8dc</text><rect x="10" y="430" width="580" height="50" fill="#00444d" filter="url(#shadow)" /><text x="20" y="465" fill="#cfd8dc" font-size="20" font-family="monospace">--color-text-main: #00444d</text><rect x="10" y="490" width="580" height="50" fill="#050708" filter="url(#shadow)" /><text x="20" y="525" fill="#cfd8dc" font-size="20" font-family="monospace">DOWNLOAD CODE: y10k</text></svg>