<svg width="600" height="490" xmlns="http://www.w3.org/2000/svg"><rect x="0" y="0" width="600" height="490" fill="#E74C3C" /><defs>
    <linearGradient id="displayNameGradient" x1="0%" y1="0%" x2="100%" y2="0%">
      <stop offset="0%" style="stop-color:#3498DB;stop-opacity:1" />
      <stop offset="100%" style="stop-color:#2ECC71;stop-opacity:1" />
    </linearGradient>
    <filter id="shadow" x="-20%" y="-20%" width="140%" height="140%">
      <feGaussianBlur in="SourceAlpha" stdDeviation="3"/>
      <feOffset dx="0" dy="4" result="offsetblur"/>
      <feComponentTransfer>
        <feFuncA type="linear" slope="0.5"/>
      </feComponentTransfer>
      <feMerge> 
        <feMergeNode/>
        <feMergeNode in="SourceGraphic"/>
      </feMerge>
    </filter>
  </defs><rect x="10" y="20" width="580" height="40" fill="url(#displayNameGradient)" filter="url(#shadow)" /><text x="20" y="50" fill="#ECF0F1" font-size="24" font-family="monospace">Z̲̅i̲̅n̲̅e̲̅</text><rect x="10" y="70" width="580" height="50" fill="#F4D03F" filter="url(#shadow)" /><text x="20" y="105" fill="#2C3E50" font-size="20" font-family="monospace">--color-primary: #F4D03F</text><rect x="10" y="130" width="580" height="50" fill="#E74C3C" filter="url(#shadow)" /><text x="20" y="165" fill="#2C3E50" font-size="20" font-family="monospace">--color-secondary: #E74C3C</text><rect x="10" y="190" width="580" height="50" fill="#3498DB" filter="url(#shadow)" /><text x="20" y="225" fill="#2C3E50" font-size="20" font-family="monospace">--color-accent-1: #3498DB</text><rect x="10" y="250" width="580" height="50" fill="#2ECC71" filter="url(#shadow)" /><text x="20" y="285" fill="#2C3E50" font-size="20" font-family="monospace">--color-accent-2: #2ECC71</text><rect x="10" y="310" width="580" height="50" fill="#34495E" filter="url(#shadow)" /><text x="20" y="345" fill="#ECF0F1" font-size="20" font-family="monospace">--color-dark: #34495E</text><rect x="10" y="370" width="580" height="50" fill="#ECF0F1" filter="url(#shadow)" /><text x="20" y="405" fill="#2C3E50" font-size="20" font-family="monospace">--color-light: #ECF0F1</text><rect x="10" y="430" width="580" height="50" fill="#2C3E50" filter="url(#shadow)" /><text x="20" y="465" fill="#ECF0F1" font-size="20" font-family="monospace">--color-text-main: #2C3E50</text></svg>